<?xml version="1.0" standalone="no"?>
<!DOCTYPE svg PUBLIC "-//W3C//DTD SVG 20010904//EN"
 "http://www.w3.org/TR/2001/REC-SVG-20010904/DTD/svg10.dtd">
<svg version="1.0" xmlns="http://www.w3.org/2000/svg"
 width="1080.000000pt" height="1080.000000pt" viewBox="0 0 1080.000000 1080.000000"
 preserveAspectRatio="xMidYMid meet">
<metadata>
Created by potrace 1.14, written by Peter Selinger 2001-2017
</metadata>
<g transform="translate(0.000000,1080.000000) scale(0.100000,-0.100000)"
fill="#000000" stroke="none">
<path d="M5205 10564 c-22 -2 -112 -8 -200 -15 -252 -17 -605 -72 -810 -125
-232 -60 -272 -72 -449 -130 -77 -25 -291 -105 -331 -124 -11 -5 -54 -23 -95
-41 -101 -43 -407 -196 -414 -207 -4 -7 423 -298 522 -357 18 -11 94 -66 102
-75 3 -3 12 -6 20 -8 8 -2 24 -12 35 -21 34 -31 61 -41 73 -29 7 7 12 9 12 5
0 -4 18 2 40 13 23 11 46 18 52 14 6 -4 8 -3 5 3 -9 14 38 23 55 11 10 -8 9
-9 -3 -5 -9 3 -22 2 -28 -3 -9 -5 -4 -7 13 -7 14 0 31 6 38 14 6 8 7 13 2 12
-26 -5 -26 3 0 16 15 8 33 12 39 8 6 -4 7 -1 2 7 -5 8 -3 11 6 8 8 -3 31 3 51
13 20 11 45 16 54 12 12 -4 15 -3 10 6 -6 9 -1 12 15 10 13 -2 39 4 58 14 18
9 38 14 44 10 6 -3 7 -1 3 5 -5 8 1 12 14 12 14 0 19 -4 15 -12 -4 -7 1 -4 10
7 14 17 17 18 25 5 9 -14 14 -7 11 13 0 4 6 8 14 8 23 2 29 4 42 12 6 4 18 4
27 1 9 -3 16 -1 16 6 0 6 5 8 10 5 6 -4 29 1 53 9 49 18 89 27 132 30 17 1 35
5 42 9 6 4 14 3 18 -3 3 -5 12 -10 18 -10 7 0 6 4 -3 11 -11 8 -6 9 22 5 21
-2 40 -1 43 5 3 5 -2 6 -12 3 -15 -4 -15 -4 -3 4 8 5 31 12 50 16 26 4 30 3
15 -3 -11 -5 -14 -10 -7 -10 7 -1 21 3 30 8 30 15 95 24 87 11 -4 -7 5 -5 22
4 16 8 56 17 89 21 217 22 669 25 701 5 14 -9 14 -10 2 -7 -9 3 -22 0 -28 -6
-8 -8 -11 -8 -11 1 0 7 -7 12 -15 12 -8 0 -15 -3 -15 -8 0 -11 -71 -34 -103
-33 -16 0 -25 -4 -22 -9 4 -6 -7 -13 -24 -16 -17 -4 -31 -10 -31 -15 0 -5 -6
-9 -13 -9 -27 0 -67 -26 -67 -42 0 -16 -11 -18 -80 -18 -44 0 -80 -4 -80 -9 0
-5 -36 -12 -80 -16 -55 -5 -80 -11 -80 -20 0 -9 -40 -15 -160 -20 -126 -6
-160 -10 -160 -21 0 -11 -18 -14 -80 -14 -73 0 -80 -2 -80 -20 0 -18 -7 -20
-80 -20 -47 0 -80 -4 -80 -10 0 -6 -33 -10 -80 -10 -47 0 -80 -4 -80 -10 0 -5
-9 -10 -19 -10 -11 0 -23 -5 -27 -11 -3 -6 -16 -8 -28 -5 -26 6 -82 -8 -79
-20 1 -5 -17 -9 -39 -10 -21 0 -43 -5 -46 -11 -11 -18 -59 -33 -103 -33 -28 0
-39 -4 -39 -15 0 -8 -9 -15 -20 -15 -11 0 -20 -4 -20 -10 0 -5 -20 -10 -44
-10 -26 0 -51 -6 -60 -15 -8 -8 -19 -15 -24 -15 -6 0 -12 -3 -14 -7 -4 -11
-66 -40 -103 -49 -20 -5 -24 -9 -13 -11 9 -2 19 -10 21 -17 4 -10 -4 -11 -33
-6 -30 6 -37 4 -33 -7 3 -8 2 -13 -3 -12 -17 3 -54 -13 -49 -21 3 -5 -4 -6
-16 -3 -16 4 -17 8 -7 14 9 6 9 9 1 9 -6 0 -15 -4 -18 -10 -3 -5 -11 -10 -16
-10 -6 0 -7 5 -3 12 5 8 2 9 -9 5 -10 -3 -17 -3 -17 2 0 8 -56 25 -72 22 -4 0
-30 8 -58 19 -28 11 -57 20 -65 20 -7 0 -26 5 -42 12 -35 14 -28 12 -93 25
-111 23 -140 24 -140 8 0 -8 5 -15 12 -15 6 0 9 -3 5 -6 -3 -3 1 -13 8 -22 8
-10 40 -48 71 -87 31 -38 61 -73 67 -76 5 -4 7 -11 3 -17 -3 -6 5 -23 20 -39
24 -26 24 -17 0 17 -6 9 -1 5 12 -10 12 -14 29 -32 38 -41 12 -13 12 -19 3
-25 -8 -5 -10 -3 -4 6 5 8 4 11 -2 7 -11 -7 -11 -54 0 -49 4 1 12 2 17 2 6 0
10 5 10 11 0 5 -4 7 -10 4 -5 -3 -10 -1 -10 4 0 6 3 11 8 11 10 0 39 -20 28
-20 -5 0 -2 -8 5 -17 13 -17 13 -17 -5 -3 -18 14 -19 13 -13 -4 6 -16 5 -17
-8 -6 -12 10 -15 10 -15 0 0 -9 -4 -9 -17 1 -11 10 -14 10 -9 2 5 -9 0 -13
-13 -13 -11 0 -41 -20 -67 -45 -25 -25 -50 -45 -54 -45 -5 0 -15 -6 -22 -14
-8 -7 -28 -21 -46 -30 -21 -11 -29 -21 -26 -31 4 -8 1 -15 -5 -15 -6 0 -11 -7
-11 -16 0 -8 -36 -51 -80 -95 -44 -44 -80 -86 -80 -92 0 -7 -9 -19 -20 -27
-11 -8 -20 -22 -20 -31 0 -15 -38 -39 -62 -39 -18 0 -58 -44 -58 -66 0 -12
-10 -25 -25 -32 -13 -6 -33 -29 -44 -50 -11 -22 -27 -42 -36 -45 -8 -4 -20
-18 -27 -32 -6 -13 -19 -27 -30 -30 -11 -4 -18 -16 -18 -30 0 -29 -17 -42 -23
-18 -4 14 -5 14 -6 -3 0 -12 -8 -24 -16 -28 -8 -3 -15 -13 -15 -21 0 -16 -23
-45 -35 -45 -14 0 -44 -46 -45 -67 0 -13 -8 -24 -20 -28 -11 -3 -20 -14 -20
-23 0 -10 -9 -24 -20 -32 -11 -8 -20 -23 -20 -33 0 -9 -6 -20 -14 -23 -7 -3
-22 -25 -32 -50 -10 -24 -22 -44 -26 -44 -4 0 -8 -12 -8 -28 0 -15 -9 -35 -20
-45 -19 -16 -20 -29 -20 -182 0 -103 4 -165 10 -165 6 0 10 -18 10 -40 0 -22
4 -40 9 -40 8 0 13 -26 27 -144 6 -47 -9 -118 -28 -140 -4 -6 -8 -34 -8 -63 0
-29 -4 -53 -10 -53 -14 0 -13 -317 1 -322 6 -2 10 -34 10 -81 0 -43 4 -77 9
-77 6 0 10 -11 10 -24 0 -14 4 -27 8 -30 5 -3 14 -31 21 -63 7 -32 18 -71 24
-88 7 -16 10 -37 9 -47 -2 -9 2 -19 8 -23 5 -3 10 -17 10 -31 0 -14 4 -34 10
-44 5 -10 12 -34 14 -52 6 -40 16 -71 29 -79 4 -3 8 -41 8 -83 0 -42 4 -76 9
-76 4 0 10 5 12 10 2 6 2 -137 0 -317 -1 -180 -6 -330 -11 -333 -4 -3 -13 -52
-20 -110 -13 -116 -33 -519 -26 -530 2 -4 5 -113 7 -243 1 -131 5 -237 9 -237
7 0 17 -164 23 -380 4 -177 13 -248 33 -269 8 -7 12 -20 9 -28 -4 -8 -3 -20 1
-26 4 -6 6 -30 4 -53 -2 -38 0 -43 21 -46 18 -2 24 -10 26 -38 2 -18 12 -42
23 -51 10 -9 19 -28 19 -43 0 -14 5 -26 10 -26 6 0 10 -11 10 -25 0 -14 11
-37 25 -51 14 -14 32 -38 40 -54 9 -17 20 -30 25 -30 6 0 10 -9 10 -20 0 -11
9 -25 20 -32 11 -7 20 -18 20 -25 0 -6 13 -22 29 -36 16 -13 36 -38 45 -54 8
-17 22 -33 31 -36 8 -4 15 -11 15 -17 0 -15 87 -100 102 -100 22 0 61 -49 55
-69 -3 -14 0 -17 13 -14 20 5 70 -40 70 -62 0 -8 7 -15 15 -15 8 0 15 -4 15
-9 0 -12 56 -71 68 -71 5 0 12 -10 16 -23 3 -12 14 -32 26 -44 11 -12 20 -28
20 -35 0 -16 43 -58 59 -58 7 0 27 -15 45 -32 18 -18 46 -44 62 -57 19 -15 25
-25 17 -28 -7 -3 -13 -12 -13 -21 0 -13 -2 -14 -9 -3 -13 21 -51 -3 -44 -29 4
-14 0 -20 -11 -20 -8 0 -18 -11 -22 -24 -3 -13 -15 -26 -26 -29 -11 -3 -17
-10 -13 -16 3 -6 -1 -18 -9 -27 -9 -8 -20 -23 -25 -32 -9 -15 -11 -15 -28 1
-11 9 -24 17 -30 17 -6 0 -13 3 -15 8 -1 4 -25 22 -53 41 -27 19 -57 43 -66
54 -9 11 -24 22 -33 23 -8 1 -22 8 -30 16 -8 7 -27 23 -42 35 -138 107 -204
166 -377 339 -162 160 -180 180 -298 324 -293 358 -546 793 -699 1200 -17 47
-40 108 -51 135 -83 220 -159 546 -211 900 -21 146 -23 195 -23 545 0 346 3
401 23 545 48 340 128 680 216 911 8 21 29 77 46 124 90 240 221 498 395 779
113 182 371 521 396 521 6 0 8 4 5 9 -9 14 20 21 35 8 10 -10 10 -9 0 6 -12
15 -11 20 4 37 10 11 22 17 27 14 4 -3 7 -1 6 5 -4 16 232 252 245 244 5 -3 7
-2 4 4 -9 14 59 77 72 68 6 -3 11 -3 10 2 -1 4 -1 13 0 19 2 16 87 75 96 66 5
-4 5 -2 2 5 -8 13 41 56 54 47 5 -3 9 2 9 10 0 8 9 17 20 21 16 5 18 10 8 31
-6 13 -15 24 -20 24 -5 0 -6 5 -3 10 3 6 2 10 -3 10 -10 0 -100 111 -336 413
l-108 137 -76 -62 c-453 -370 -840 -811 -1145 -1308 -104 -169 -222 -395 -331
-632 -64 -140 -191 -496 -232 -647 -143 -532 -197 -925 -197 -1426 1 -639 105
-1216 329 -1819 25 -66 52 -134 59 -151 7 -16 28 -64 45 -105 52 -120 203
-415 277 -540 381 -638 891 -1191 1486 -1609 64 -45 117 -88 117 -94 0 -7 -11
-20 -24 -30 -21 -16 -136 -193 -136 -210 0 -3 -21 -39 -46 -79 -26 -40 -56
-89 -69 -108 -12 -19 -62 -95 -111 -168 -49 -74 -105 -160 -124 -192 -19 -31
-54 -81 -76 -111 -23 -30 -50 -67 -59 -84 -10 -16 -29 -40 -42 -53 -13 -13
-23 -27 -23 -32 0 -7 1114 -10 3064 -10 2594 0 3065 2 3069 14 6 16 -11 36
-30 36 -7 0 -13 11 -13 25 0 31 -68 78 -144 100 -89 27 -109 21 -215 -64 -97
-78 -144 -67 -166 39 -4 19 -19 60 -35 90 -24 49 -100 332 -100 373 0 46 100
184 217 299 l68 68 40 -11 c55 -15 102 -53 137 -110 35 -55 34 -55 145 7 69
38 79 49 65 67 -5 7 -21 32 -34 57 -14 25 -35 63 -48 85 -12 22 -41 74 -63
115 -23 41 -72 129 -110 195 -37 66 -69 125 -70 130 -1 6 -4 12 -7 15 -3 3
-14 18 -24 34 -14 22 -20 25 -27 15 -4 -7 -11 -11 -14 -7 -4 3 -16 -3 -26 -13
-20 -20 -43 -21 -45 -3 -5 38 -19 77 -30 81 -9 3 -10 11 -4 29 9 22 8 23 -8
15 -12 -6 -23 -5 -34 3 -16 12 -15 14 8 25 24 11 25 13 11 29 -24 27 -7 43 45
41 31 -2 52 3 62 14 9 9 25 19 36 22 11 3 20 11 20 16 0 5 6 9 14 9 16 0 76
56 76 71 0 5 6 7 13 4 6 -4 3 1 -8 10 -20 16 -20 16 0 13 37 -6 47 -19 41 -52
-4 -21 -3 -26 3 -16 6 8 13 11 17 7 4 -3 2 -13 -4 -20 -9 -10 -8 -14 3 -14 8
0 12 4 9 9 -3 4 -1 8 4 8 12 0 24 -29 16 -41 -3 -5 7 -14 22 -19 15 -6 24 -13
21 -17 -4 -3 9 -24 27 -47 18 -22 35 -46 37 -51 5 -13 86 -150 115 -195 12
-19 36 -60 52 -90 16 -30 36 -56 45 -58 38 -8 42 27 43 458 0 228 4 426 8 440
6 20 5 22 -4 10 -10 -12 -11 -10 -6 10 3 14 6 38 6 54 0 28 1 29 14 10 8 -10
18 -16 22 -11 4 4 2 7 -4 7 -7 0 -12 11 -12 25 0 17 4 23 14 19 8 -3 21 5 29
17 10 14 23 20 35 17 15 -4 18 -1 15 12 -6 23 44 73 67 67 13 -3 16 0 13 13
-3 11 3 19 17 23 12 3 24 15 27 26 3 12 10 21 15 21 5 0 27 18 48 40 21 22 43
40 50 40 14 0 80 66 80 80 0 5 4 10 10 10 11 0 60 47 60 58 0 4 20 15 45 25
25 11 45 23 45 29 0 12 26 38 38 38 5 0 46 36 91 80 46 44 87 80 92 80 5 0 9
6 9 13 0 18 43 53 48 39 2 -7 8 -9 14 -6 6 4 5 10 -3 15 -10 6 -11 11 -3 19
16 16 44 2 36 -18 -5 -14 -4 -15 10 -2 9 8 12 18 7 21 -5 3 6 20 25 38 24 23
35 29 39 19 4 -8 6 -9 6 -1 1 6 -3 15 -9 18 -18 11 -12 55 8 56 10 0 12 3 5 6
-7 2 -13 14 -13 26 1 20 2 20 11 4 6 -9 14 -15 20 -12 12 8 12 42 -1 47 -6 2
-6 15 -1 33 7 29 8 29 15 7 4 -13 13 -21 19 -19 7 2 18 -5 25 -17 12 -19 13
-19 6 -1 -17 48 -16 75 5 104 17 23 21 44 21 100 0 64 -2 71 -20 71 -18 0 -20
7 -20 80 0 44 -4 80 -9 80 -15 0 -25 151 -10 160 8 6 10 23 6 59 -3 28 -2 53
4 56 5 4 9 23 9 44 0 83 13 161 26 161 11 0 14 32 14 160 0 128 -3 160 -14
160 -13 0 -26 77 -26 157 0 18 -6 43 -12 54 -10 16 -10 23 -2 26 18 6 -27 83
-48 83 -15 0 -18 9 -18 53 0 51 -17 107 -32 107 -5 0 -8 14 -8 30 0 17 -4 30
-10 30 -5 0 -10 9 -10 20 0 11 -4 20 -10 20 -6 0 -10 30 -10 69 0 55 -5 78
-25 112 -20 36 -25 57 -25 122 0 62 -3 77 -15 77 -12 0 -15 14 -15 63 0 35 -3
66 -6 70 -3 3 -8 45 -10 94 -2 48 -8 89 -14 91 -5 2 -10 26 -10 53 0 28 -4 58
-8 67 -5 9 -5 94 -1 187 5 104 4 171 -2 173 -11 4 -11 577 0 705 5 54 13 92
21 97 9 5 14 53 18 164 4 140 3 156 -12 156 -13 0 -16 12 -16 73 -1 86 -14
160 -29 165 -6 2 -11 21 -11 43 0 27 -4 39 -14 39 -8 0 -21 22 -31 52 -15 47
-64 108 -86 108 -5 0 -9 14 -9 30 0 17 -4 30 -10 30 -5 0 -10 5 -10 10 0 19
-44 72 -68 81 -18 7 -21 14 -16 35 5 19 4 25 -5 20 -6 -4 -11 -2 -11 3 0 6 -7
11 -15 11 -18 0 -65 44 -65 60 0 17 -26 40 -44 40 -9 0 -16 8 -16 20 0 11 -4
20 -9 20 -5 0 -13 9 -16 20 -3 11 -11 20 -16 20 -15 0 -39 27 -39 44 0 8 -9
18 -21 21 -11 4 -18 9 -15 12 11 12 -16 44 -49 58 -19 7 -35 20 -35 27 0 8 -9
20 -20 28 -11 8 -20 20 -20 27 0 7 -7 13 -15 13 -8 0 -15 8 -15 19 0 10 -7 24
-15 31 -11 10 -15 10 -15 0 0 -6 -6 -10 -12 -7 -7 2 -12 14 -10 25 2 15 -2 22
-12 22 -9 0 -16 8 -16 19 0 10 -6 21 -14 24 -7 3 -16 20 -20 39 l-7 33 -19
-25 c-17 -23 -19 -23 -26 -6 -4 10 -2 21 5 26 16 9 -7 68 -39 98 -12 11 -19
25 -16 31 4 6 1 9 -6 6 -19 -7 -47 18 -45 41 1 10 -3 18 -8 17 -6 -1 -11 7
-12 17 -1 11 4 17 15 16 10 -2 16 -13 17 -32 0 -32 10 -44 39 -44 12 0 16 5
12 15 -3 8 -1 15 4 15 6 0 10 -5 10 -11 0 -5 5 -7 10 -4 6 4 10 3 9 -2 -4 -23
2 -35 16 -29 9 3 18 -1 21 -9 4 -8 11 -12 17 -8 6 4 7 1 1 -8 -4 -8 -9 -20
-11 -28 -1 -11 2 -11 14 2 16 16 19 15 64 -25 10 -10 23 -18 29 -18 5 0 9 -6
7 -12 -1 -7 4 -12 11 -11 6 2 12 -2 12 -7 0 -5 6 -9 13 -7 6 1 11 -4 10 -10
-2 -7 0 -12 5 -10 12 4 112 -85 106 -95 -3 -4 -1 -7 4 -6 5 2 41 -27 81 -64
40 -38 70 -68 68 -68 -3 0 18 -23 48 -51 36 -34 52 -56 48 -67 -4 -13 -2 -14
4 -4 8 10 19 3 48 -30 21 -24 62 -70 91 -103 70 -78 144 -177 144 -192 0 -6 5
-15 12 -19 7 -5 9 -2 4 7 -4 8 -1 6 6 -5 7 -10 22 -30 34 -45 11 -14 29 -41
39 -58 11 -18 23 -33 27 -33 4 0 8 -7 8 -15 0 -8 4 -15 8 -15 4 0 16 -13 25
-30 10 -16 15 -30 10 -30 -4 0 3 -7 15 -16 19 -13 21 -19 11 -30 -10 -12 -10
-15 1 -12 40 9 301 -482 410 -773 17 -46 38 -102 46 -123 89 -236 170 -577
216 -916 20 -147 22 -207 22 -540 0 -398 -9 -506 -65 -805 -34 -178 -107 -467
-126 -498 -4 -7 -9 -23 -11 -36 -2 -13 -9 -40 -16 -60 -8 -20 -19 -52 -26 -71
-7 -19 -21 -52 -31 -72 -10 -20 -19 -46 -19 -57 0 -12 -5 -21 -11 -21 -5 0 -8
-4 -5 -9 6 -10 -19 -67 -42 -93 -8 -10 -16 -29 -18 -43 -1 -14 -7 -32 -13 -39
-6 -7 -7 -17 -3 -21 4 -5 2 -5 -4 -2 -7 4 -15 0 -18 -9 -3 -8 -2 -12 4 -9 15
9 12 0 -9 -23 -10 -12 -21 -20 -25 -17 -3 3 -2 0 3 -6 6 -7 3 -18 -7 -30 -10
-11 -17 -25 -17 -31 0 -6 -6 -13 -14 -16 -10 -3 -12 0 -7 13 5 15 4 16 -9 5
-11 -9 -12 -15 -5 -20 6 -4 8 -15 4 -26 -6 -18 -6 -18 10 1 21 25 -40 -92 -64
-122 -9 -12 -20 -19 -24 -15 -4 3 -4 -1 -1 -10 4 -10 -2 -29 -14 -46 -11 -16
-17 -33 -13 -37 4 -5 1 -5 -6 -1 -7 4 -9 13 -6 19 4 7 -1 4 -12 -5 -15 -15
-16 -20 -5 -30 11 -11 12 -10 6 1 -5 10 -4 12 4 7 15 -9 5 -26 -16 -26 -9 0
-13 -6 -10 -14 3 -7 -6 -31 -20 -52 -26 -37 -26 -37 -35 -15 -5 15 -4 29 3 37
8 10 8 14 0 14 -15 0 -44 -47 -38 -62 4 -8 6 -6 6 5 1 25 14 21 28 -8 6 -14 8
-23 3 -20 -8 5 -20 -16 -26 -44 -1 -7 -11 -23 -22 -35 -10 -11 -22 -29 -25
-39 -4 -11 -12 -15 -18 -11 -7 4 -9 3 -6 -3 9 -14 -21 -53 -41 -54 -11 0 -12
-2 -4 -6 13 -5 -4 -35 -57 -99 -14 -17 -37 -46 -51 -65 -14 -18 -40 -49 -59
-68 -19 -20 -32 -36 -30 -36 2 -1 -20 -28 -50 -62 -30 -34 -59 -59 -64 -56 -6
3 -7 1 -4 -4 7 -12 -16 -36 -26 -28 -4 3 -5 2 -2 -2 3 -3 -13 -26 -35 -49 -22
-24 -40 -47 -40 -52 0 -5 11 -19 24 -31 15 -14 27 -40 31 -65 3 -22 17 -99 31
-171 13 -71 33 -177 44 -235 56 -303 66 -350 73 -350 29 0 393 353 548 530
531 609 918 1336 1114 2093 116 451 168 857 168 1317 0 1043 -298 2022 -878
2885 -99 148 -90 135 -232 315 -251 318 -517 586 -843 846 -226 181 -385 288
-705 475 -74 43 -271 141 -390 194 -166 73 -179 79 -245 104 -30 11 -84 31
-120 45 -59 22 -290 95 -350 110 -335 86 -401 100 -660 141 -219 34 -780 64
-935 49z m539 -796 c-6 -10 -45 -10 -61 0 -6 4 5 7 27 7 21 0 36 -3 34 -7z
m-111 -25 c-7 -2 -19 -2 -25 0 -7 3 -2 5 12 5 14 0 19 -2 13 -5z m358 -11 c-7
-2 -18 1 -23 6 -8 8 -4 9 13 5 13 -4 18 -8 10 -11z m-511 -44 c0 -4 -7 -8 -15
-8 -8 0 -15 4 -15 8 0 5 7 9 15 9 8 0 15 -4 15 -9z m1004 -47 c4 -5 -3 -7 -14
-4 -23 6 -26 13 -6 13 8 0 17 -4 20 -9z m83 -18 c-9 -2 -15 -9 -12 -14 3 -5
-1 -6 -10 -2 -13 5 -14 7 -3 14 7 5 20 8 28 8 11 -1 10 -3 -3 -6z m230 -59
c-3 -3 -12 -4 -19 -1 -8 3 -5 6 6 6 11 1 17 -2 13 -5z m118 -64 c3 -5 1 -10
-4 -10 -6 0 -11 5 -11 10 0 6 2 10 4 10 3 0 8 -4 11 -10z m52 -24 c0 -8 -6
-12 -15 -9 -11 5 -11 7 0 14 7 5 13 9 14 9 0 0 1 -6 1 -14z m170 -51 c0 -8 -4
-12 -9 -9 -5 3 -6 10 -3 15 9 13 12 11 12 -6z m43 -35 c8 -5 11 -10 5 -10 -5
0 -17 5 -25 10 -8 5 -10 10 -5 10 6 0 17 -5 25 -10z m165 -80 c-3 -5 -14 -10
-23 -9 -14 0 -13 2 3 9 27 11 27 11 20 0z m-3840 -160 c-3 -5 -18 -10 -33 -9
-24 0 -25 1 -7 9 28 12 47 12 40 0z m-65 -10 c0 -5 -7 -10 -15 -10 -8 0 -15 5
-15 10 0 6 7 10 15 10 8 0 15 -4 15 -10z m4340 -46 c0 -8 -19 -13 -24 -6 -3 5
1 9 9 9 8 0 15 -2 15 -3z m-110 -39 c0 -5 -5 -3 -10 5 -5 8 -10 20 -10 25 0 6
5 3 10 -5 5 -8 10 -19 10 -25z m244 -57 c4 3 4 -1 0 -11 -3 -9 -10 -17 -16
-17 -5 0 -6 5 -2 12 5 7 2 9 -8 6 -8 -4 -15 0 -15 7 0 10 5 11 17 5 10 -5 20
-6 24 -2z m82 -73 c1 -8 -2 -15 -7 -15 -5 0 -9 4 -9 9 0 5 -3 18 -6 28 -6 15
-4 16 6 6 8 -7 15 -20 16 -28z m-4833 -92 c-4 -10 -2 -14 5 -9 6 3 13 2 16 -3
4 -5 -1 -8 -9 -7 -20 3 -28 13 -20 25 10 17 15 13 8 -6z m2287 -1523 c0 -5 -8
-10 -17 -10 -15 0 -16 2 -3 10 19 12 20 12 20 0z m53 -35 c32 -8 69 -15 82
-15 13 0 27 -5 30 -10 4 -6 10 -8 14 -5 5 2 16 -4 26 -15 17 -19 19 -19 31 -2
9 11 13 13 14 4 0 -7 11 -24 25 -38 25 -25 29 -37 26 -84 -2 -19 0 -22 8 -10
5 8 7 18 5 22 -3 4 -2 8 2 8 10 0 33 -33 34 -47 0 -14 58 -73 71 -73 5 0 40
-15 77 -34 225 -112 269 -136 291 -160 14 -14 29 -26 35 -26 17 0 50 -55 100
-163 51 -110 46 -128 -21 -83 -23 16 -51 26 -74 26 -20 0 -52 6 -71 14 -40 17
-186 22 -384 13 -61 -3 -90 -10 -121 -28 -38 -22 -43 -22 -96 -10 -55 14 -56
14 -94 -16 -59 -46 -80 -55 -102 -43 -40 21 -75 12 -116 -30 -30 -31 -42 -37
-56 -30 -11 7 -27 6 -44 0 -39 -15 -71 -12 -91 8 -10 9 -18 16 -18 15 -1 -1
-11 0 -23 3 -13 4 -29 23 -42 52 -12 29 -21 39 -21 27 0 -18 -2 -18 -20 5 -11
14 -20 31 -20 38 0 17 31 11 47 -8 9 -11 12 -12 13 -2 0 15 -44 62 -59 62 -14
0 -91 74 -91 87 0 6 -7 16 -15 23 -13 11 -18 10 -29 -5 -10 -13 -15 -15 -21
-6 -4 8 1 21 14 32 12 11 21 26 21 33 0 7 11 23 25 36 22 20 36 24 105 25 74
0 82 3 103 27 29 34 78 58 123 60 19 1 37 5 40 10 3 4 28 8 55 8 30 0 65 8 89
20 43 22 91 26 120 10 13 -7 27 -7 44 1 l25 12 -44 41 c-57 54 -72 66 -82 66
-11 0 -49 63 -43 70 3 3 -8 7 -25 8 -36 5 -56 19 -49 37 4 8 -3 15 -17 17 -12
2 -24 9 -26 15 -3 9 3 8 24 -2 35 -19 49 -19 56 -1 5 13 27 21 67 25 9 0 42
-6 73 -14z m3384 -817 c-1 -79 -3 -15 -3 142 0 157 2 221 3 143 2 -79 2 -207
0 -285z m-2138 -509 l52 -34 -72 -3 c-52 -2 -89 3 -138 19 -82 27 -93 36 -50
43 19 3 45 8 59 10 51 9 99 -3 149 -35z m-992 -9 c48 -6 93 -20 135 -42 35
-18 77 -35 93 -38 l30 -5 -3 -80 c-1 -43 -7 -84 -12 -89 -6 -6 -10 -21 -10
-34 l0 -24 -39 32 c-82 64 -172 74 -256 29 -60 -33 -192 -136 -272 -213 -40
-38 -76 -66 -80 -63 -3 4 -1 25 6 47 7 23 9 50 6 60 -5 15 2 25 29 41 39 23
87 107 79 138 -3 13 16 32 71 72 41 30 75 57 76 60 0 4 -31 23 -70 43 -38 21
-70 41 -70 46 0 5 17 12 38 15 20 4 44 8 52 10 32 6 128 4 197 -5z m643 -277
c18 -23 30 -27 77 -30 38 -2 60 -7 65 -18 7 -11 26 -15 71 -15 43 0 75 -6 102
-20 22 -11 47 -20 56 -20 10 0 34 -15 53 -34 31 -29 36 -40 36 -80 l0 -46 -39
0 c-46 0 -73 -9 -65 -21 3 -5 14 -9 25 -9 18 0 19 -5 13 -37 -9 -51 -40 -123
-66 -150 -19 -20 -31 -23 -99 -23 -70 0 -81 3 -125 33 -35 23 -58 48 -79 89
-29 55 -29 58 -12 75 15 15 33 18 123 15 58 -2 120 0 137 4 32 7 32 7 7 15
-14 4 -48 7 -77 8 -79 2 -202 48 -240 91 -18 20 -23 37 -23 81 0 58 16 119 30
119 5 0 18 -12 30 -27z m-605 -134 c56 -16 92 -44 116 -91 26 -51 19 -103 -23
-173 -35 -60 -74 -88 -145 -106 -43 -10 -59 -10 -96 2 -89 28 -179 134 -163
191 6 24 63 88 134 151 36 32 49 37 90 37 26 0 65 -5 87 -11z m535 -424 c0
-21 -5 -25 -30 -25 l-31 0 18 25 c23 32 43 32 43 0z m124 -165 c20 -22 36 -41
36 -43 0 -1 -60 -3 -134 -4 l-134 -2 -7 26 c-3 14 -3 28 0 32 12 11 99 29 151
30 48 1 54 -2 88 -39z m96 -93 c33 -23 160 -147 160 -156 0 -13 -142 -121
-159 -121 -9 0 -38 13 -66 29 -138 80 -235 130 -256 133 -26 3 -36 30 -20 50
6 7 22 27 36 45 14 17 38 34 53 36 55 9 232 -2 252 -16z m279 -146 c6 -39 11
-96 11 -129 0 -49 7 -72 45 -146 25 -49 45 -96 45 -106 0 -19 -22 -42 -36 -38
-9 2 -131 -9 -209 -18 -59 -7 -95 -11 -250 -23 -77 -6 -164 -13 -193 -15 -49
-4 -52 -3 -47 15 4 11 4 38 0 60 -6 33 -9 38 -21 28 -17 -14 -18 -1 -2 32 11
24 13 24 152 25 78 0 152 3 166 6 14 4 35 7 48 7 18 1 22 7 22 31 0 18 5 30
13 30 8 0 20 11 27 25 7 14 18 25 24 25 6 0 37 25 69 55 31 30 64 55 71 55 8
0 23 -13 33 -30 17 -29 33 -39 33 -21 0 6 -4 13 -10 16 -5 3 -23 35 -40 71
-30 61 -33 94 -11 94 5 0 13 9 16 21 12 36 31 4 44 -70z m282 -843 c7 -13 23
-31 36 -41 12 -10 23 -25 23 -33 0 -17 0 -17 -40 0 -29 12 -40 11 -94 -6 -33
-10 -83 -25 -111 -32 -27 -8 -59 -17 -70 -21 -13 -4 -10 1 10 17 38 30 135 88
146 88 5 0 9 3 9 8 0 9 51 41 67 42 7 0 18 -10 24 -22z m192 -485 c2 -5 -2
-23 -8 -42 l-12 -34 -6 33 c-4 17 -4 36 -1 41 6 11 21 12 27 2z m-183 -231 c0
-18 -39 -43 -74 -49 -48 -8 -46 8 7 34 45 23 67 28 67 15z m-299 -42 c-19 -5
-53 -5 -75 0 -36 7 -31 8 34 8 60 0 68 -2 41 -8z m-2478 -254 c7 -17 -8 -85
-22 -99 -12 -12 -74 32 -91 64 -12 21 -5 43 11 34 5 -4 17 -1 26 4 26 15 70
13 76 -3z m1809 -513 c38 -43 62 -120 78 -249 8 -62 7 -80 -7 -109 -23 -47
-39 -44 -46 9 -7 51 -67 237 -91 283 -20 40 -20 48 0 67 20 21 47 20 66 -1z
m-196 -242 c-4 -51 -11 -102 -16 -112 -6 -10 -10 -37 -10 -61 -1 -57 -23 -151
-37 -155 -26 -9 -36 40 -29 141 22 333 25 348 74 303 23 -21 24 -26 18 -116z
m764 -51 c0 -6 -11 -8 -27 -4 -40 10 -41 14 -5 14 18 0 32 -5 32 -10z m-3580
-10 c0 -5 -4 -10 -10 -10 -5 0 -10 5 -10 10 0 6 5 10 10 10 6 0 10 -4 10 -10z
m4510 4 c0 -8 -19 -13 -24 -6 -3 5 1 9 9 9 8 0 15 -2 15 -3z m-4450 -28 c0
-11 -19 -15 -25 -6 -3 5 1 10 9 10 9 0 16 -2 16 -4z m4095 -311 c35 -30 37
-34 15 -28 -26 6 -70 41 -70 55 0 15 15 8 55 -27z m-783 -17 c-9 -9 -12 -7
-12 12 0 19 3 21 12 12 9 -9 9 -15 0 -24z m68 -117 c0 -10 -7 -24 -15 -31 -17
-14 -20 -3 -9 37 7 26 24 21 24 -6z m50 -162 c0 -24 -23 -21 -28 4 -2 10 3 17
12 17 10 0 16 -9 16 -21z m56 -17 c-9 -8 -26 10 -26 26 1 15 2 15 15 -2 8 -11
13 -21 11 -24z m-22 -17 c3 -8 1 -15 -4 -15 -6 0 -10 7 -10 15 0 8 2 15 4 15
2 0 6 -7 10 -15z m41 -43 c-11 -11 -25 15 -19 33 7 17 8 16 16 -5 5 -13 6 -25
3 -28z m30 -12 c3 -5 1 -10 -4 -10 -6 0 -11 5 -11 10 0 6 2 10 4 10 3 0 8 -4
11 -10z m-3378 -96 c100 -34 253 -157 253 -204 0 -9 4 -20 9 -25 5 -6 16 -30
24 -55 34 -99 54 -150 60 -157 4 -3 7 -14 7 -24 0 -10 13 -47 29 -81 29 -61
48 -106 78 -178 8 -19 28 -61 44 -93 17 -32 28 -61 26 -64 -3 -3 -33 18 -66
46 -34 27 -81 59 -106 70 -24 11 -64 33 -88 50 -24 16 -77 46 -117 65 -114 56
-129 74 -167 211 -35 121 -43 168 -43 245 0 41 -3 91 -7 110 -10 42 -5 100 7
100 5 0 31 -7 57 -16z m1029 -34 c10 0 59 -21 111 -47 105 -52 194 -129 238
-206 40 -70 75 -181 82 -262 7 -82 -2 -106 -48 -129 -29 -14 -33 -14 -61 7
-42 31 -134 175 -157 247 -21 63 -139 222 -173 235 -13 4 -18 17 -18 43 0 20
-9 52 -21 71 -24 40 -19 67 10 51 11 -5 27 -10 37 -10z m404 -15 c526 -133
630 -166 630 -195 0 -31 -42 -100 -61 -100 -10 0 -64 9 -121 19 -150 28 -196
33 -202 23 -3 -6 8 -76 25 -157 38 -184 37 -191 -17 -187 -44 4 -68 -12 -34
-21 26 -7 26 -27 1 -27 -32 0 -51 11 -51 30 0 13 -11 19 -40 24 -44 7 -55 21
-64 86 -4 25 -11 65 -16 90 -5 25 -18 108 -30 185 -25 162 -39 202 -75 211
-25 6 -31 15 -18 27 8 9 8 9 73 -8z m-1007 -83 c17 -18 35 -69 63 -172 8 -30
19 -64 24 -75 18 -39 48 -141 55 -187 6 -40 5 -48 -8 -48 -9 0 -19 10 -23 23
-4 12 -17 45 -30 74 -13 28 -24 57 -24 64 0 7 -11 35 -24 63 -37 79 -85 235
-79 256 7 25 25 26 46 2z m2427 -57 c97 -13 166 -30 176 -42 6 -7 9 -24 6 -38
-3 -18 15 -55 71 -143 41 -65 77 -129 79 -142 3 -21 -2 -25 -41 -33 -30 -6
-58 -5 -84 3 -28 8 -43 8 -50 1 -6 -6 -37 -11 -69 -11 -66 0 -81 14 -97 91 -5
24 -23 98 -41 164 -49 184 -48 169 -14 161 16 -3 45 -8 64 -11z m760 -26 c10
-18 9 -20 -7 -17 -10 2 -19 11 -21 21 -5 24 15 21 28 -4z m-170 -271 c16 -18
30 -41 30 -50 0 -9 5 -20 10 -23 13 -8 13 -61 -1 -86 -8 -15 -6 -31 6 -63 16
-41 16 -45 -4 -82 -12 -21 -21 -49 -21 -62 0 -13 -11 -67 -24 -120 -13 -53
-27 -114 -31 -135 -10 -60 -70 -76 -96 -26 -5 8 -54 101 -110 208 l-102 194
32 29 c50 45 77 36 121 -38 38 -67 61 -97 67 -90 7 7 33 138 33 166 0 14 6 37
14 52 9 16 12 42 9 65 -5 41 10 93 27 93 6 0 24 -15 40 -32z m-425 -321 c3
-17 10 -50 15 -72 5 -22 17 -91 26 -153 15 -98 15 -115 3 -123 -17 -11 -100
-12 -117 -1 -6 5 -16 42 -22 84 -5 42 -14 105 -20 140 -15 92 -13 107 13 118
12 5 35 18 51 29 36 24 43 21 51 -22z m940 -122 c15 -55 29 -104 31 -110 2 -5
-8 -23 -21 -40 -31 -38 -39 -30 -69 74 -21 74 -23 91 -14 145 6 33 12 68 15
76 7 22 26 -26 58 -145z m-1275 90 c8 -6 22 -14 30 -17 16 -6 28 -54 51 -200
16 -104 13 -108 -63 -108 -35 0 -69 4 -76 9 -8 5 -19 48 -27 102 -20 137 -31
189 -44 202 -19 19 -13 26 27 29 46 5 83 -1 102 -17z m944 -47 c9 -18 28 -51
41 -73 29 -47 34 -101 9 -91 -12 5 -10 -1 6 -21 62 -81 62 -93 1 -93 -49 0
-60 13 -67 89 -6 52 -5 61 10 61 21 0 20 6 -3 29 -36 36 -52 131 -23 131 4 0
16 -15 26 -32z m-1392 -5 c35 -38 168 -242 168 -258 0 -10 -22 -14 -87 -14
-49 0 -93 3 -99 7 -22 14 -74 110 -74 136 0 15 -6 26 -14 26 -15 0 -66 62 -66
80 0 15 78 48 116 49 21 1 38 -8 56 -26z"/>
<path d="M5585 7190 c3 -5 8 -10 11 -10 2 0 4 5 4 10 0 6 -5 10 -11 10 -5 0
-7 -4 -4 -10z"/>
<path d="M5570 7160 c-13 -8 -13 -10 2 -10 9 0 20 5 23 10 8 13 -5 13 -25 0z"/>
<path d="M5628 7113 c7 -3 16 -2 19 1 4 3 -2 6 -13 5 -11 0 -14 -3 -6 -6z"/>
<path d="M5565 7090 c4 -6 11 -8 16 -5 14 9 11 15 -7 15 -8 0 -12 -5 -9 -10z"/>
<path d="M5781 7054 c0 -11 3 -14 6 -6 3 7 2 16 -1 19 -3 4 -6 -2 -5 -13z"/>
<path d="M5615 7050 c-3 -5 1 -10 9 -10 9 0 16 5 16 10 0 6 -4 10 -9 10 -6 0
-13 -4 -16 -10z"/>
<path d="M5680 7020 c0 -5 5 -10 10 -10 6 0 10 5 10 10 0 6 -4 10 -10 10 -5 0
-10 -4 -10 -10z"/>
<path d="M5790 7005 c0 -9 6 -12 15 -9 8 4 12 10 9 15 -8 14 -24 10 -24 -6z"/>
<path d="M5740 7000 c0 -5 10 -10 23 -10 18 0 19 2 7 10 -19 13 -30 13 -30 0z"/>
<path d="M5338 9763 c7 -3 16 -2 19 1 4 3 -2 6 -13 5 -11 0 -14 -3 -6 -6z"/>
<path d="M4060 9546 c0 -2 7 -6 15 -10 8 -3 15 -1 15 4 0 6 -7 10 -15 10 -8 0
-15 -2 -15 -4z"/>
<path d="M3895 9450 c4 -6 11 -8 16 -5 14 9 11 15 -7 15 -8 0 -12 -5 -9 -10z"/>
<path d="M3858 9443 c7 -3 16 -2 19 1 4 3 -2 6 -13 5 -11 0 -14 -3 -6 -6z"/>
<path d="M3606 9413 c-6 -14 -5 -15 5 -6 7 7 10 15 7 18 -3 3 -9 -2 -12 -12z"/>
<path d="M3363 9173 c9 -2 23 -2 30 0 6 3 -1 5 -18 5 -16 0 -22 -2 -12 -5z"/>
<path d="M3005 8980 c10 -11 20 -20 23 -20 3 0 -3 9 -13 20 -10 11 -20 20 -23
20 -3 0 3 -9 13 -20z"/>
<path d="M8117 8815 c3 -8 9 -12 14 -9 12 7 11 11 -5 17 -10 4 -13 1 -9 -8z"/>
<path d="M8164 8748 c-4 -7 -4 -10 1 -6 4 4 16 3 26 -3 11 -5 19 -7 19 -5 0 3
-9 10 -19 16 -15 7 -22 7 -27 -2z"/>
<path d="M8257 8703 c4 -10 2 -14 -4 -10 -11 7 -11 -29 0 -40 4 -4 15 -8 23
-9 13 -2 13 0 -2 17 -13 14 -14 22 -5 33 9 11 8 15 -3 19 -11 4 -13 1 -9 -10z"/>
<path d="M8646 8252 c-3 -5 1 -9 9 -9 8 0 12 4 9 9 -3 4 -7 8 -9 8 -2 0 -6 -4
-9 -8z"/>
<path d="M9306 3511 c-4 -6 -3 -18 2 -27 8 -15 10 -14 16 2 8 20 -8 42 -18 25z"/>
<path d="M2100 3419 c0 -11 5 -17 10 -14 6 3 10 13 10 21 0 8 -4 14 -10 14 -5
0 -10 -9 -10 -21z"/>
<path d="M9256 3347 c3 -10 9 -15 12 -12 3 3 0 11 -7 18 -10 9 -11 8 -5 -6z"/>
<path d="M9124 3143 c-6 -23 -6 -32 3 -35 3 -2 7 9 7 25 2 31 -4 36 -10 10z"/>
<path d="M8893 2765 c0 -8 4 -12 9 -9 5 3 6 10 3 15 -9 13 -12 11 -12 -6z"/>
<path d="M8141 2284 c0 -11 3 -14 6 -6 3 7 2 16 -1 19 -3 4 -6 -2 -5 -13z"/>
<path d="M7696 1905 c-9 -26 -7 -32 5 -12 6 10 9 21 6 23 -2 3 -7 -2 -11 -11z"/>
</g>
</svg>
